<?xml version="1.0" standalone="no"?>
<!DOCTYPE svg PUBLIC "-//W3C//DTD SVG 20010904//EN"
 "http://www.w3.org/TR/2001/REC-SVG-20010904/DTD/svg10.dtd">
<svg version="1.0" xmlns="http://www.w3.org/2000/svg"
 width="400.000000pt" height="400.000000pt" viewBox="0 0 400.000000 400.000000"
 preserveAspectRatio="xMidYMid meet">
<metadata>
Created by potrace 1.11, written by Peter Selinger 2001-2013
</metadata>
<g transform="translate(0.000000,400.000000) scale(0.100000,-0.100000)"
fill="#000000" stroke="none">
<path d="M1979 3889 c-8 -15 -14 -17 -29 -9 -26 14 -101 15 -128 2 -12 -7 -32
-17 -43 -23 -17 -8 -30 -7 -60 7 -22 9 -39 20 -39 24 0 3 -22 6 -49 6 -32 0
-48 -4 -44 -10 3 -7 1 -6 -6 0 -12 11 -39 6 -96 -17 -11 -5 -40 -13 -65 -18
-24 -6 -46 -15 -48 -21 -2 -5 -8 -8 -13 -4 -5 3 -8 1 -7 -4 2 -6 0 -10 -5 -11
-4 0 -20 -15 -35 -33 l-29 -31 -20 20 c-11 11 -23 27 -26 34 -3 11 -7 11 -17
2 -10 -9 -9 -18 3 -43 15 -28 15 -32 0 -37 -8 -3 -31 -1 -49 6 -23 8 -53 10
-92 5 -31 -4 -63 -7 -69 -6 -18 4 -53 -17 -53 -31 0 -7 -14 -21 -30 -32 -18
-12 -30 -29 -30 -42 0 -16 -13 -27 -50 -45 -27 -13 -49 -28 -50 -35 0 -7 -18
-31 -41 -55 -50 -52 -61 -72 -63 -112 -2 -28 -5 -31 -36 -31 -29 0 -35 -4 -35
-22 0 -12 -14 -39 -31 -60 -42 -52 -57 -82 -51 -104 6 -23 -16 -55 -31 -45 -7
4 -12 3 -12 -1 0 -5 -14 -17 -30 -27 -17 -9 -38 -29 -47 -42 -15 -23 -15 -26
6 -48 22 -23 28 -51 12 -60 -5 -3 -12 -23 -16 -43 -3 -21 -17 -49 -29 -63 -24
-25 -43 -80 -29 -80 10 0 33 -72 27 -82 -3 -5 -12 -8 -20 -8 -8 0 -14 -5 -14
-11 0 -5 -4 -7 -10 -4 -5 3 -9 -4 -9 -17 1 -13 -8 -50 -18 -83 -28 -88 -29
-157 -3 -199 17 -29 19 -41 11 -75 -5 -23 -5 -41 -1 -41 5 0 6 -9 3 -20 -3
-11 -8 -18 -12 -16 -4 3 -16 -17 -28 -42 -18 -38 -20 -55 -13 -86 5 -21 6 -45
3 -52 -3 -7 5 -33 16 -57 12 -25 19 -52 15 -61 -4 -10 1 -25 10 -35 10 -11 19
-43 22 -77 3 -33 12 -75 19 -95 8 -21 10 -41 5 -50 -13 -20 27 -59 61 -59 23
0 28 -5 31 -27 2 -17 12 -32 28 -40 18 -9 20 -13 8 -13 -21 0 -25 -40 -5 -40
9 0 9 -3 -1 -9 -18 -11 41 -33 64 -24 17 6 74 -43 69 -61 -11 -36 -14 -76 -5
-71 6 3 10 -5 10 -19 0 -20 -4 -24 -17 -19 -16 6 -16 5 -4 -10 9 -12 10 -17 2
-17 -7 0 -9 -4 -6 -10 3 -5 17 -10 30 -10 17 0 25 6 27 22 8 58 57 10 60 -59
1 -45 6 -49 90 -73 38 -11 45 -17 36 -28 -9 -11 -6 -12 18 -6 16 4 36 12 44
19 13 11 45 21 89 28 13 2 17 -3 42 -55 7 -16 17 -28 23 -28 6 0 5 5 -2 12 -7
7 -12 19 -12 27 0 12 3 12 18 -1 9 -9 33 -24 52 -33 19 -10 29 -20 23 -22 -7
-3 -13 -9 -13 -14 0 -6 4 -8 9 -5 5 3 14 0 20 -8 8 -10 35 -14 95 -13 57 1 89
-3 100 -12 14 -12 22 -10 54 13 21 14 53 41 71 60 31 32 35 33 73 24 62 -14
95 -35 107 -69 6 -17 9 -35 6 -39 -11 -18 27 -38 87 -44 36 -4 78 -17 98 -29
26 -16 48 -21 93 -20 52 2 62 -1 83 -24 14 -15 22 -32 20 -40 -3 -7 1 -19 9
-27 8 -7 13 -15 12 -17 -1 -2 0 -2 3 -1 3 2 5 7 6 10 0 4 6 20 12 35 7 16 12
33 12 38 0 6 7 18 16 27 15 14 15 17 0 27 -18 14 -21 61 -6 99 13 36 46 54
162 89 101 30 156 36 167 19 10 -15 105 -35 109 -23 2 6 15 11 30 11 14 0 22
3 19 7 -4 3 -2 12 5 20 9 11 14 11 29 -3 16 -15 56 -28 121 -41 19 -4 29 0 37
15 6 12 25 22 51 26 25 4 51 16 64 31 20 22 27 23 57 14 35 -10 113 4 125 22
3 5 20 9 38 9 19 0 40 7 47 17 13 15 12 15 -8 5 -42 -23 -43 -11 -2 28 23 22
44 40 46 40 3 0 1 -10 -3 -22 -5 -17 2 -13 29 17 23 26 37 52 40 79 3 22 11
42 16 44 6 2 9 8 5 13 -7 12 47 89 64 89 7 0 10 5 7 10 -4 6 4 19 17 30 13 11
18 19 12 20 -6 0 -17 -7 -24 -15 -9 -11 -16 -12 -30 -3 -17 11 -17 13 7 25 14
7 35 11 46 7 16 -5 19 -3 13 12 -4 9 -2 21 5 24 6 4 13 34 15 66 4 65 21 136
41 174 7 14 13 58 13 102 0 42 4 80 10 83 12 7 56 100 65 136 4 16 2 30 -4 33
-6 4 -11 0 -11 -10 0 -16 -2 -16 -20 1 -16 15 -20 15 -15 3 4 -9 0 -18 -9 -21
-10 -4 -16 -1 -16 9 0 8 -4 12 -10 9 -6 -3 -7 1 -4 9 3 9 10 16 15 16 5 0 4
12 -1 26 -14 36 -12 91 3 97 8 3 5 12 -11 27 -13 12 -21 29 -18 36 3 8 0 23
-6 34 -10 15 -9 23 6 39 11 12 14 21 8 21 -7 0 -12 10 -12 23 0 24 -23 64 -48
84 -13 11 -13 14 1 27 12 12 13 24 6 57 -11 47 -38 99 -52 99 -6 0 -7 18 -3
42 6 36 5 40 -9 28 -9 -8 -15 -8 -15 -2 0 6 4 13 10 17 10 6 2 35 -10 35 -5 0
-12 -10 -15 -21 -6 -16 -9 -18 -15 -8 -5 7 -4 21 1 30 10 20 12 102 2 137 -4
17 -11 22 -25 19 -15 -4 -18 -2 -13 10 3 9 2 19 -2 22 -25 18 -65 92 -59 108
6 14 4 15 -5 6 -13 -13 -42 -6 -33 9 3 5 -4 20 -17 34 -12 13 -19 24 -15 24 4
0 2 9 -4 20 -6 11 -18 20 -26 20 -12 0 -15 6 -10 24 5 19 0 29 -20 45 -14 11
-30 36 -35 55 -11 39 -54 86 -79 86 -27 0 -60 30 -60 56 0 13 -5 24 -11 24 -6
0 -9 9 -6 19 5 19 -7 20 -38 2 -14 -8 -36 -13 -65 -14 -18 -2 -28 6 -39 28 -8
17 -20 34 -28 38 -7 4 -13 15 -13 22 0 10 -10 15 -30 15 -16 0 -30 5 -30 10 0
6 -9 10 -20 10 -11 0 -20 -7 -20 -15 0 -16 -12 -18 -47 -9 -29 8 -29 25 2 74
29 46 33 58 21 59 -6 1 -11 -6 -12 -15 -2 -10 -17 -31 -34 -48 l-31 -31 -30
35 c-16 19 -29 28 -29 20 0 -7 -3 -11 -6 -8 -3 4 -1 15 5 27 8 14 8 22 -1 27
-6 4 -14 2 -16 -4 -2 -6 -9 -9 -16 -6 -8 3 -16 -2 -19 -11 -5 -11 -18 -15 -51
-12 -25 1 -48 6 -52 10 -11 10 -36 9 -30 -2 3 -5 -1 -12 -10 -15 -23 -9 -24
-8 -24 13 0 25 -28 54 -46 47 -7 -3 -15 0 -18 7 -5 9 -7 9 -12 0 -7 -17 -23
-16 -56 1 -16 8 -28 11 -28 5 0 -5 -4 -9 -10 -9 -5 0 -10 6 -10 14 0 23 -49
26 -61 5z m-964 -179 c3 -5 1 -10 -4 -10 -6 0 -11 5 -11 10 0 6 2 10 4 10 3 0
8 -4 11 -10z m-30 -10 c3 -5 1 -10 -4 -10 -6 0 -11 5 -11 10 0 6 2 10 4 10 3
0 8 -4 11 -10z m-532 -795 c-3 -9 -8 -14 -10 -11 -3 3 -2 9 2 15 9 16 15 13 8
-4z m1527 -140 c0 -8 4 -15 9 -15 6 0 24 -15 41 -32 24 -26 30 -39 26 -61 -4
-19 -2 -27 7 -25 6 1 38 -11 71 -27 55 -27 60 -28 85 -14 14 9 25 23 25 32 -1
9 2 14 7 11 5 -3 9 4 9 15 0 12 -5 21 -11 21 -5 0 -7 5 -4 10 4 6 11 8 16 4 7
-4 8 6 4 28 -9 54 4 64 59 40 26 -12 46 -28 46 -36 0 -18 58 -50 109 -61 36
-8 51 4 50 40 0 11 -3 14 -6 8 -3 -9 -10 -10 -24 -3 -21 12 -26 40 -8 40 7 0
17 7 23 15 13 19 56 28 74 16 8 -4 17 -39 22 -77 7 -53 14 -73 32 -87 14 -12
24 -15 26 -8 5 15 22 14 22 -1 1 -15 42 -43 113 -77 26 -13 55 -34 64 -47 32
-49 80 -244 60 -244 -7 0 -323 182 -361 208 -39 27 -43 27 -260 34 -237 7
-252 4 -241 -40 6 -24 5 -25 -37 -16 -56 10 -115 11 -155 1 -29 -8 -33 -6 -33
11 0 43 -20 47 -264 47 -231 0 -231 0 -241 -23 -7 -17 -28 -28 -80 -43 -38
-11 -104 -31 -145 -43 l-75 -24 -17 21 c-10 11 -18 15 -18 10 0 -6 -6 -13 -14
-16 -12 -5 -11 4 3 46 10 29 21 78 25 110 10 80 27 122 49 122 9 0 16 2 15 5
-1 3 4 16 11 29 9 17 16 20 24 12 19 -19 26 -12 29 26 2 30 8 38 30 44 18 5
28 3 32 -6 9 -23 55 -24 72 -1 16 21 16 21 10 -6 -14 -60 100 -104 155 -59 23
19 24 19 52 -5 35 -30 90 -40 125 -24 15 7 75 14 135 15 106 3 157 18 157 46
0 12 51 69 62 69 5 0 8 -7 8 -15z m-576 -26 c-8 -14 -31 -11 -31 5 0 8 8 11
19 8 10 -2 15 -8 12 -13z m-974 1 c0 -5 -2 -10 -4 -10 -3 0 -8 5 -11 10 -3 6
-1 10 4 10 6 0 11 -4 11 -10z m1995 -40 c3 -5 1 -10 -4 -10 -6 0 -11 5 -11 10
0 6 2 10 4 10 3 0 8 -4 11 -10z m235 -11 c0 -5 -4 -9 -10 -9 -5 0 -10 7 -10
16 0 8 5 12 10 9 6 -3 10 -10 10 -16z m-150 -15 c0 -2 -7 -4 -15 -4 -8 0 -15
4 -15 10 0 5 7 7 15 4 8 -4 15 -8 15 -10z m184 -29 c-4 -8 -10 -12 -15 -9 -14
8 -10 24 6 24 9 0 12 -6 9 -15z m-2343 -109 c-11 -27 -24 -37 -16 -11 3 8 7
22 10 31 3 9 8 15 11 12 2 -3 0 -17 -5 -32z m3079 14 c0 -5 -2 -10 -4 -10 -3
0 -8 5 -11 10 -3 6 -1 10 4 10 6 0 11 -4 11 -10z m-1616 -152 c-13 -160 -16
-177 -30 -182 -32 -12 -312 -26 -337 -17 -14 5 -27 8 -29 6 -2 -2 -4 4 -5 14
-1 10 -6 53 -12 95 -6 43 -11 88 -11 102 l0 24 214 0 214 0 -4 -42z m703 29
c2 -3 -1 -45 -8 -93 -18 -125 -29 -134 -151 -133 -51 0 -118 4 -148 9 -58 8
-74 3 -65 -21 4 -11 38 -15 163 -17 214 -3 225 3 247 161 4 31 11 47 18 44 7
-3 11 -10 9 -17 -2 -7 3 -10 12 -7 8 3 20 -1 27 -9 6 -8 14 -13 16 -10 3 2 32
-12 66 -31 34 -19 101 -55 150 -79 48 -24 87 -48 87 -53 0 -5 11 -12 25 -15
55 -14 105 -132 105 -249 0 -66 -12 -103 -46 -138 -21 -22 -33 -26 -62 -23
-49 6 -64 -8 -95 -91 -46 -121 -99 -216 -127 -227 -13 -5 -31 -14 -38 -21 -8
-6 -33 -13 -56 -14 -22 -2 -53 -7 -68 -12 -20 -7 -28 -7 -28 2 0 7 -7 4 -14
-6 -10 -12 -16 -15 -21 -7 -4 7 -13 4 -25 -10 -10 -12 -22 -22 -27 -22 -4 0
-21 -11 -38 -24 -40 -30 -121 -58 -230 -80 -118 -23 -344 -23 -431 0 -34 9
-76 16 -92 16 -50 0 -153 43 -214 89 -98 74 -164 173 -173 261 -4 41 -10 58
-40 125 -13 28 -28 77 -35 110 -7 33 -17 66 -22 73 -7 8 -7 12 1 12 18 0 13
45 -8 64 -22 20 -31 57 -36 138 -2 31 -8 65 -14 76 -5 10 -8 27 -7 38 2 10 0
24 -5 29 -5 7 28 23 91 44 118 40 123 38 139 -52 7 -41 19 -69 34 -85 23 -23
28 -23 196 -23 138 1 178 5 206 18 39 19 41 24 50 135 l7 78 41 11 c65 18 163
-1 194 -38 l24 -28 -6 59 -6 59 212 -6 c116 -3 213 -8 216 -10z m-1212 -65
c-11 -9 -87 -33 -101 -31 -5 1 16 9 46 19 65 22 67 22 55 12z m-295 -19 c-8
-3 -23 -10 -32 -15 -11 -5 -18 -5 -18 1 0 10 23 18 50 19 13 0 13 0 0 -5z m97
-99 c-3 -3 -12 -4 -19 -1 -8 3 -5 6 6 6 11 1 17 -2 13 -5z m-797 -124 c-16
-31 -23 -18 -8 15 7 15 14 23 16 17 2 -6 -2 -21 -8 -32z m327 -30 c-1 -11 -5
-20 -9 -20 -10 0 -10 4 -2 24 8 22 13 20 11 -4z m-327 -36 c0 -8 -4 -12 -10
-9 -5 3 -10 10 -10 16 0 5 5 9 10 9 6 0 10 -7 10 -16z m314 -6 c-4 -6 -8 -34
-9 -61 -2 -30 1 -44 6 -35 6 9 9 6 10 -12 1 -14 1 -31 0 -39 -2 -7 2 -10 7 -7
18 11 62 -71 60 -109 -2 -19 -7 -35 -11 -35 -5 0 -5 -4 -2 -10 7 -12 3 -12
-20 -4 -13 6 -14 9 -3 16 9 6 6 7 -9 3 -18 -5 -26 2 -50 42 -22 39 -28 60 -28
113 0 74 21 150 42 150 8 0 11 -5 7 -12z m-281 -42 c4 -9 -3 -16 -19 -19 -26
-5 -31 2 -12 21 16 16 25 15 31 -2z m3114 -38 c-3 -8 -6 -5 -6 6 -1 11 2 17 5
13 3 -3 4 -12 1 -19z m-2571 -122 c8 -8 14 -24 14 -36 0 -12 5 -31 11 -42 8
-14 8 -23 0 -31 -17 -17 -13 -27 11 -27 25 0 16 -11 -24 -28 -23 -9 -26 -9
-21 3 3 8 1 15 -4 15 -6 0 -10 13 -9 29 1 16 4 27 9 24 4 -2 7 3 7 11 0 8 -4
17 -9 20 -8 6 -11 76 -3 76 2 0 10 -6 18 -14z m-416 -151 c0 -3 -6 -5 -14 -5
-17 0 -31 17 -41 50 -7 24 -6 23 24 -7 17 -18 31 -35 31 -38z m450 -25 c0 -5
-4 -10 -10 -10 -5 0 -10 5 -10 10 0 6 5 10 10 10 6 0 10 -4 10 -10z m-482 -41
c-17 -11 -58 -11 -58 -1 0 16 44 30 58 19 11 -8 11 -12 0 -18z m480 13 c9 9
12 7 12 -11 0 -31 -30 -24 -41 9 -8 22 -7 23 4 8 11 -13 16 -15 25 -6z m30
-32 c-1 -23 -4 -36 -8 -30 -6 10 -1 70 6 70 2 0 3 -18 2 -40z m-438 -70 c0 -5
-4 -10 -9 -10 -6 0 -13 5 -16 10 -3 6 1 10 9 10 9 0 16 -4 16 -10z m2720 -211
c0 -5 5 -7 11 -3 7 4 10 1 7 -7 -3 -8 -14 -15 -26 -17 -16 -2 -20 2 -19 17 1
21 27 30 27 10z m-2425 -69 c-3 -5 -11 -10 -16 -10 -6 0 -7 5 -4 10 3 6 11 10
16 10 6 0 7 -4 4 -10z m-10 -50 c14 11 45 3 45 -12 0 -5 -9 -6 -20 -3 -13 4
-22 1 -26 -9 -3 -9 -10 -16 -15 -16 -14 0 -29 47 -22 67 5 14 8 12 16 -10 7
-21 12 -25 22 -17z m395 -154 c0 -3 -4 -8 -10 -11 -5 -3 -10 -1 -10 4 0 6 5
11 10 11 6 0 10 -2 10 -4z m28 -45 c-1 -22 -5 -27 -19 -24 -25 7 -31 31 -11
42 26 16 31 13 30 -18z"/>
<path d="M1703 2624 c-24 -14 -43 -29 -43 -35 0 -11 -3 -12 45 6 22 8 57 14
78 15 25 0 37 5 37 14 0 34 -61 34 -117 0z"/>
<path d="M1035 2381 c-6 -11 13 -26 22 -17 4 3 1 6 -6 6 -7 0 -9 5 -6 10 3 6
4 10 1 10 -3 0 -7 -4 -11 -9z"/>
<path d="M1709 2341 c-49 -50 -30 -121 32 -121 35 0 49 18 49 63 0 77 -36 103
-81 58z"/>
<path d="M2144 2358 c-12 -19 -6 -79 11 -104 20 -31 50 -31 70 0 18 27 12 50
-23 89 -27 29 -46 34 -58 15z"/>
<path d="M2990 2069 c0 -8 11 -30 25 -49 20 -27 25 -30 25 -14 0 23 -49 87
-50 63z"/>
<path d="M1837 2051 c-6 -26 3 -41 26 -41 17 0 19 -2 8 -9 -12 -8 -10 -11 11
-16 31 -8 98 9 141 36 l32 19 -55 0 c-31 0 -79 6 -107 13 -46 12 -52 12 -56
-2z"/>
<path d="M2270 3856 c0 -2 7 -7 16 -10 8 -3 12 -2 9 4 -6 10 -25 14 -25 6z"/>
<path d="M309 2623 c-25 -30 -39 -72 -37 -111 1 -36 1 -36 5 -5 2 18 15 53 29
79 26 49 27 66 3 37z"/>
<path d="M700 1171 c0 -6 4 -13 10 -16 6 -3 7 1 4 9 -7 18 -14 21 -14 7z"/>
<path d="M910 1065 c-11 -13 -10 -14 4 -9 9 3 16 10 16 15 0 13 -6 11 -20 -6z"/>
<path d="M1620 940 c19 -13 30 -13 30 0 0 6 -10 10 -22 10 -19 0 -20 -2 -8
-10z"/>
<path d="M1762 834 c-17 -14 -43 -45 -57 -69 -14 -24 -32 -46 -40 -49 -7 -2
-35 6 -62 20 -57 28 -53 28 -53 9 0 -9 7 -18 15 -21 8 -4 15 -18 16 -33 0 -23
1 -24 9 -6 8 19 9 19 9 1 1 -16 6 -17 49 -11 56 8 61 12 86 62 11 21 28 47 37
58 15 18 35 65 27 65 -2 0 -18 -12 -36 -26z"/>
<path d="M1556 499 c-15 -12 -24 -24 -21 -27 3 -4 9 -2 13 4 4 6 18 18 32 27
13 9 20 17 14 17 -6 0 -23 -10 -38 -21z"/>
</g>
</svg>
